<svg width="13" height="8" viewBox="0 0 13 8" fill="none" xmlns="http://www.w3.org/2000/svg">
<path d="M10.386 2H9.05445V1C9.05445 0.45 8.57511 0 7.98924 0H1.59793C1.01206 0 0.532715 0.45 0.532715 1V5.5C0.532715 6.05 1.01206 6.5 1.59793 6.5C1.59793 7.33 2.31163 8 3.19576 8C4.07989 8 4.79358 7.33 4.79358 6.5H7.98924C7.98924 7.33 8.70293 8 9.58706 8C10.4712 8 11.1849 7.33 11.1849 6.5H11.7175C12.0104 6.5 12.2501 6.275 12.2501 6V4.335C12.2501 4.12 12.1755 3.91 12.0371 3.735L10.8121 2.2C10.7109 2.075 10.5511 2 10.386 2ZM3.19576 7C2.90282 7 2.66315 6.775 2.66315 6.5C2.66315 6.225 2.90282 6 3.19576 6C3.48869 6 3.72837 6.225 3.72837 6.5C3.72837 6.775 3.48869 7 3.19576 7ZM10.386 2.75L11.4299 4H9.05445V2.75H10.386ZM9.58706 7C9.29413 7 9.05445 6.775 9.05445 6.5C9.05445 6.225 9.29413 6 9.58706 6C9.88 6 10.1197 6.225 10.1197 6.5C10.1197 6.775 9.88 7 9.58706 7Z" fill="#0060B1"/>
</svg>
