<svg width="12" height="8" viewBox="0 0 12 8" fill="none" xmlns="http://www.w3.org/2000/svg">
<path d="M8.02817 4.00055C7.72987 4.00055 7.44922 3.83984 7.29742 3.58271L6.16247 1.67919L5.02928 3.58271C4.87572 3.84163 4.59507 4.00234 4.29677 4.00234C4.21734 4.00234 4.13791 3.99162 4.06201 3.96841L1.64383 3.26843V6.44692C1.64383 6.70941 1.82034 6.93797 2.07099 7.00047L5.88711 7.96652C6.06715 8.01116 6.25602 8.01116 6.43429 7.96652L10.2539 7.00047C10.5046 6.93619 10.6811 6.70762 10.6811 6.44692V3.26843L8.26293 3.96663C8.18703 3.98984 8.1076 4.00055 8.02817 4.00055ZM11.7808 1.99704L10.8717 0.16137C10.817 0.0506587 10.6988 -0.0136253 10.577 0.0024457L6.16247 0.572073L7.78106 3.28807C7.84813 3.40057 7.98228 3.45414 8.1076 3.41843L11.6007 2.40952C11.7755 2.35774 11.8602 2.16132 11.7808 1.99704ZM1.4532 0.16137L0.544181 1.99704C0.462987 2.16132 0.549477 2.35774 0.722456 2.40774L4.21557 3.41664C4.34089 3.45235 4.47504 3.39878 4.54211 3.28629L6.16247 0.572073L1.74621 0.0024457C1.62442 -0.0118396 1.50792 0.0506587 1.4532 0.16137Z" fill="#0060B1"/>
</svg>
