<svg width="67" height="44" viewBox="0 0 67 44" fill="none" xmlns="http://www.w3.org/2000/svg">
<g filter="url(#filter0_d_0_1)">
<path d="M15.095 10.2736C13.4699 8.47255 13.6093 5.59084 15.095 4.51023C17.4722 2.7812 21.0383 3.7898 22.5242 4.51023C28.7151 7.512 40.8741 14.8844 39.9826 20.3596C39.0911 25.8349 18.3144 34.8882 8.03743 38.7305C6.55167 39.286 3.35716 40.4595 3.95149 37.2896C4.54582 34.1197 10.6376 29.7252 13.2378 28.2843L22.5242 23.2413C23.6386 22.5209 25.4231 21.4402 25.4231 19.9994C25.4231 18.1983 23.0195 16.5173 21.7813 15.6768C20.4193 14.8363 17.1751 12.579 15.095 10.2736Z" fill="#F26D1E"/>
<path d="M15.095 10.2736C13.4699 8.47255 13.6093 5.59084 15.095 4.51023C17.4722 2.7812 21.0383 3.7898 22.5242 4.51023C28.7151 7.512 40.8741 14.8844 39.9826 20.3596C39.0911 25.8349 18.3144 34.8882 8.03743 38.7305C6.55167 39.286 3.35716 40.4595 3.95149 37.2896C4.54582 34.1197 10.6376 29.7252 13.2378 28.2843L22.5242 23.2413C23.6386 22.5209 25.4231 21.4402 25.4231 19.9994C25.4231 18.1983 23.0195 16.5173 21.7813 15.6768C20.4193 14.8363 17.1751 12.579 15.095 10.2736Z" stroke="#F0EEEE" stroke-width="4.49892"/>
</g>
<path d="M15.095 10.2736C13.4699 8.47255 13.6093 5.59084 15.095 4.51023C17.4722 2.7812 21.0383 3.7898 22.5242 4.51023C28.7151 7.512 40.8741 14.8844 39.9826 20.3596C39.0911 25.8349 18.3144 34.8882 8.03743 38.7305C6.55167 39.286 3.35716 40.4595 3.95149 37.2896C4.54582 34.1197 10.6376 29.7252 13.2378 28.2843L22.5242 23.2413C23.6386 22.5209 25.4231 21.4402 25.4231 19.9994C25.4231 18.1983 23.0195 16.5173 21.7813 15.6768C20.4193 14.8363 17.1751 12.579 15.095 10.2736Z" fill="#F26D1E"/>
<g filter="url(#filter1_f_0_1)">
<path d="M32.8507 24.3217C26.6933 26.8609 19.4939 29.2569 18.2306 27.9132C16.9673 26.5694 27.2789 23.9615 27.2789 19.9991C27.2789 17.8378 24.9899 15.9783 23.9358 14.9561C21.3356 12.4346 19.4784 11.354 17.6211 9.19271C14.7731 5.87861 17.2241 4.8702 21.3356 6.67128C24.8698 8.2195 32.7721 12.4346 36.9112 17.1174C39.14 19.6389 38.3626 22.0487 32.8507 24.3217Z" fill="#F4901A" fill-opacity="0.8"/>
</g>
<g filter="url(#filter2_d_0_1)">
<path d="M37.3808 10.2732C35.7556 8.47206 35.895 5.59036 37.3808 4.50974C39.758 2.78071 43.3241 3.78931 44.81 4.50974C51.0009 7.51152 63.1599 14.8839 62.2684 20.3591C61.3769 25.8344 40.6001 34.8877 30.3232 38.73C28.8374 39.2855 25.6429 40.459 26.2373 37.2891C26.8316 34.1193 32.9234 29.7247 35.5236 28.2838L44.81 23.2408C45.9243 22.5204 47.7088 21.4397 47.7088 19.9989C47.7088 18.1978 45.3052 16.5169 44.0671 15.6764C42.705 14.8359 39.4609 12.5785 37.3808 10.2732Z" fill="#F26D1E"/>
<path d="M37.3808 10.2732C35.7556 8.47206 35.895 5.59036 37.3808 4.50974C39.758 2.78071 43.3241 3.78931 44.81 4.50974C51.0009 7.51152 63.1599 14.8839 62.2684 20.3591C61.3769 25.8344 40.6001 34.8877 30.3232 38.73C28.8374 39.2855 25.6429 40.459 26.2373 37.2891C26.8316 34.1193 32.9234 29.7247 35.5236 28.2838L44.81 23.2408C45.9243 22.5204 47.7088 21.4397 47.7088 19.9989C47.7088 18.1978 45.3052 16.5169 44.0671 15.6764C42.705 14.8359 39.4609 12.5785 37.3808 10.2732Z" stroke="#F0EEEE" stroke-width="4.49892"/>
</g>
<path d="M45.4718 21.4642L42.96 22.8282C41.5027 23.6197 39.8908 22.0688 40.6254 20.582C40.8735 20.0797 40.8582 19.4874 40.5844 18.9986L39.2214 16.5658C38.9374 16.0588 38.5812 15.5959 38.1641 15.1913L36.1929 13.2798L33.3126 10.8857C32.6711 10.3525 33.146 9.31388 33.9688 9.45014C33.9853 9.45287 34.0009 9.45592 34.0172 9.45954C34.1708 9.49373 35.0471 9.68315 35.8236 9.73571C36.0627 9.7519 36.2956 9.82907 36.4848 9.9761C36.5378 10.0172 36.5867 10.0632 36.6311 10.1134L38.4421 12.1623C38.6757 12.4265 38.932 12.6696 39.2083 12.8888L42.8791 15.8013L45.8649 18.8537C46.3969 19.3975 46.4894 20.234 46.0891 20.8809C45.9376 21.1257 45.7248 21.3268 45.4718 21.4642Z" fill="#F0EEEE"/>
<path d="M37.3808 10.2732C35.7556 8.47206 35.895 5.59036 37.3808 4.50974C39.758 2.78071 43.3241 3.78931 44.81 4.50974C51.0009 7.51152 63.1599 14.8839 62.2684 20.3591C61.3769 25.8344 40.6001 34.8877 30.3232 38.73C28.8374 39.2855 25.6429 40.459 26.2373 37.2891C26.8316 34.1193 32.9234 29.7247 35.5236 28.2838L44.81 23.2408C45.9243 22.5204 47.7088 21.4397 47.7088 19.9989C47.7088 18.1978 45.3052 16.5169 44.0671 15.6764C42.705 14.8359 39.4609 12.5785 37.3808 10.2732Z" fill="#F26D1E"/>
<path d="M33.6907 27.1554L39.5008 22.9296C40.1214 22.4783 40.9919 22.9216 40.9919 23.6889C40.9919 24.0104 40.8273 24.3096 40.5558 24.4818L33.0823 29.2204L28.8233 31.8755L27.6577 32.8174C27.2811 33.1217 26.7367 33.0971 26.3891 32.7601C25.9322 32.3169 26.0267 31.5595 26.5787 31.2424L33.6907 27.1554Z" fill="#F0EEEE"/>
<g filter="url(#filter3_f_0_1)">
<path d="M55.1404 24.3211C49.5686 26.8603 41.8056 29.2564 40.7876 27.9126C39.7695 26.5688 49.5686 23.9609 49.5686 19.9985C49.5686 17.8372 47.2796 15.9777 46.2255 14.9555C43.6252 12.4339 41.768 11.3534 39.9107 9.1921C37.0628 5.87799 39.5138 4.86959 43.6252 6.67067C47.1595 8.21889 55.0618 12.434 59.2009 17.1168C61.4296 19.6383 60.5612 21.8507 55.1404 24.3211Z" fill="#F4901A" fill-opacity="0.8"/>
</g>
<defs>
<filter id="filter0_d_0_1" x="0.130122" y="0.556577" width="43.6487" height="43.3512" filterUnits="userSpaceOnUse" color-interpolation-filters="sRGB">
<feFlood flood-opacity="0" result="BackgroundImageFix"/>
<feColorMatrix in="SourceAlpha" type="matrix" values="0 0 0 0 0 0 0 0 0 0 0 0 0 0 0 0 0 0 127 0" result="hardAlpha"/>
<feOffset dy="0.749819"/>
<feGaussianBlur stdDeviation="0.749819"/>
<feColorMatrix type="matrix" values="0 0 0 0 0 0 0 0 0 0 0 0 0 0 0 0 0 0 0.25 0"/>
<feBlend mode="normal" in2="BackgroundImageFix" result="effect1_dropShadow_0_1"/>
<feBlend mode="normal" in="SourceGraphic" in2="effect1_dropShadow_0_1" result="shape"/>
</filter>
<filter id="filter1_f_0_1" x="15.6406" y="5.03814" width="23.1834" height="24.0111" filterUnits="userSpaceOnUse" color-interpolation-filters="sRGB">
<feFlood flood-opacity="0" result="BackgroundImageFix"/>
<feBlend mode="normal" in="SourceGraphic" in2="BackgroundImageFix" result="shape"/>
<feGaussianBlur stdDeviation="0.37491" result="effect1_foregroundBlur_0_1"/>
</filter>
<filter id="filter2_d_0_1" x="22.4159" y="0.556089" width="43.6487" height="43.3512" filterUnits="userSpaceOnUse" color-interpolation-filters="sRGB">
<feFlood flood-opacity="0" result="BackgroundImageFix"/>
<feColorMatrix in="SourceAlpha" type="matrix" values="0 0 0 0 0 0 0 0 0 0 0 0 0 0 0 0 0 0 127 0" result="hardAlpha"/>
<feOffset dy="0.749819"/>
<feGaussianBlur stdDeviation="0.749819"/>
<feColorMatrix type="matrix" values="0 0 0 0 0 0 0 0 0 0 0 0 0 0 0 0 0 0 0.25 0"/>
<feBlend mode="normal" in2="BackgroundImageFix" result="effect1_dropShadow_0_1"/>
<feBlend mode="normal" in="SourceGraphic" in2="effect1_dropShadow_0_1" result="shape"/>
</filter>
<filter id="filter3_f_0_1" x="37.9302" y="5.03753" width="23.163" height="24.0111" filterUnits="userSpaceOnUse" color-interpolation-filters="sRGB">
<feFlood flood-opacity="0" result="BackgroundImageFix"/>
<feBlend mode="normal" in="SourceGraphic" in2="BackgroundImageFix" result="shape"/>
<feGaussianBlur stdDeviation="0.37491" result="effect1_foregroundBlur_0_1"/>
</filter>
</defs>
</svg>
